<svg version="1.1" width="1000" height="1000" viewBox="0 0 1000 1000"><rect width="1000" height="1000" fill="#ffffff"></rect><g transform="matrix(0.7,0,0,0.7,149.57575757575756,423.13376168657)"><svg viewBox="0 0 396 87" data-background-color="#ffffff" preserveAspectRatio="xMidYMid meet" height="219" width="1000"><g id="tight-bounds" transform="matrix(1,0,0,1,0.2400000000000091,0.12271841662368388)"><svg viewBox="0 0 395.52 86.75456316675262" height="86.75456316675262" width="395.52"><g><svg viewBox="0 0 523.0326136162387 114.72356876072435" height="86.75456316675262" width="395.52"><g><rect width="3.53811394804523" height="114.72356876072435" x="114.71242127016936" y="0" fill="#010c80" opacity="1" stroke-width="0" stroke="transparent" fill-opacity="1" class="rect-in-0" data-fill-palette-color="primary" rx="1%" id="in-0" data-palette-color="#010c80"></rect></g><g transform="matrix(1,0,0,1,127.51261361623875,0.28538201184259293)"><svg viewBox="0 0 395.52 114.15280473703916" height="114.15280473703916" width="395.52"><g><svg viewBox="0 0 395.52 114.15280473703916" height="114.15280473703916" width="395.52"><g><svg viewBox="0 0 395.52 84.83771275167784" height="84.83771275167784" width="395.52"><g transform="matrix(1,0,0,1,0,0)"><svg width="395.52" viewBox="1.5499999999999956 -36.550000000000004 372.5 76.9" height="84.83771275167784" data-palette-color="#010c80"><svg></svg><svg></svg><g class="undefined-text-0" data-fill-palette-color="primary" id="text-0"><path d="M28.5-8.53v0c0.367 0 0.683 0.143 0.95 0.43v0l2.65 2.87c-1.467 1.82-3.27 3.213-5.41 4.18-2.14 0.967-4.71 1.45-7.71 1.45v0c-2.687 0-5.1-0.46-7.24-1.38-2.14-0.913-3.97-2.187-5.49-3.82-1.513-1.633-2.677-3.583-3.49-5.85-0.807-2.267-1.21-4.74-1.21-7.42v0c0-2.72 0.45-5.21 1.35-7.47 0.9-2.26 2.167-4.207 3.8-5.84 1.633-1.633 3.587-2.903 5.86-3.81 2.28-0.907 4.793-1.36 7.54-1.36v0c2.687 0 5.033 0.43 7.04 1.29 2.007 0.853 3.727 1.99 5.16 3.41v0l-2.25 3.12c-0.133 0.2-0.303 0.377-0.51 0.53-0.207 0.147-0.493 0.22-0.86 0.22v0c-0.387 0-0.78-0.15-1.18-0.45-0.4-0.3-0.907-0.623-1.52-0.97-0.62-0.353-1.4-0.68-2.34-0.98-0.94-0.3-2.137-0.45-3.59-0.45v0c-1.7 0-3.263 0.297-4.69 0.89-1.42 0.593-2.643 1.44-3.67 2.54-1.027 1.1-1.827 2.437-2.4 4.01-0.573 1.573-0.86 3.347-0.86 5.32v0c0 2.027 0.287 3.833 0.86 5.42 0.573 1.58 1.353 2.913 2.34 4 0.98 1.08 2.137 1.91 3.47 2.49 1.333 0.573 2.767 0.86 4.3 0.86v0c0.92 0 1.75-0.05 2.49-0.15 0.74-0.1 1.423-0.26 2.05-0.48 0.627-0.213 1.217-0.49 1.77-0.83 0.56-0.347 1.117-0.77 1.67-1.27v0c0.167-0.147 0.34-0.267 0.52-0.36 0.187-0.093 0.387-0.14 0.6-0.14zM71.85-18.07v0c0 2.647-0.44 5.1-1.32 7.36-0.887 2.253-2.13 4.207-3.73 5.86-1.6 1.647-3.527 2.933-5.78 3.86-2.247 0.927-4.737 1.39-7.47 1.39v0c-2.733 0-5.23-0.463-7.49-1.39-2.26-0.927-4.193-2.213-5.8-3.86-1.607-1.653-2.853-3.607-3.74-5.86-0.88-2.26-1.32-4.713-1.32-7.36v0c0-2.653 0.44-5.11 1.32-7.37 0.887-2.26 2.133-4.213 3.74-5.86 1.607-1.647 3.54-2.933 5.8-3.86 2.26-0.927 4.757-1.39 7.49-1.39v0c2.733 0 5.223 0.467 7.47 1.4 2.253 0.933 4.18 2.22 5.78 3.86 1.6 1.64 2.843 3.59 3.73 5.85 0.88 2.26 1.32 4.717 1.32 7.37zM64.95-18.07v0c0-1.987-0.263-3.767-0.79-5.34-0.52-1.58-1.273-2.92-2.26-4.02-0.987-1.1-2.183-1.94-3.59-2.52-1.407-0.587-2.993-0.88-4.76-0.88v0c-1.767 0-3.36 0.293-4.78 0.88-1.413 0.58-2.617 1.42-3.61 2.52-0.993 1.1-1.753 2.44-2.28 4.02-0.533 1.573-0.8 3.353-0.8 5.34v0c0 1.98 0.267 3.757 0.8 5.33 0.527 1.573 1.287 2.907 2.28 4 0.993 1.093 2.197 1.93 3.61 2.51 1.42 0.587 3.013 0.88 4.78 0.88v0c1.767 0 3.353-0.293 4.76-0.88 1.407-0.58 2.603-1.417 3.59-2.51 0.987-1.093 1.74-2.427 2.26-4 0.527-1.573 0.79-3.35 0.79-5.33zM95.3-15v0c0.28 0.533 0.543 1.087 0.79 1.66 0.24 0.573 0.477 1.153 0.71 1.74v0c0.233-0.6 0.477-1.193 0.73-1.78 0.247-0.58 0.513-1.137 0.8-1.67v0l10.7-20.03c0.127-0.247 0.263-0.447 0.41-0.6 0.14-0.147 0.297-0.253 0.47-0.32 0.18-0.067 0.377-0.11 0.59-0.13 0.22-0.013 0.48-0.02 0.78-0.02v0h5.07v36.15h-5.92v-23.35c0-0.433 0.01-0.91 0.03-1.43 0.027-0.513 0.067-1.037 0.12-1.57v0l-10.93 20.5c-0.247 0.467-0.573 0.83-0.98 1.09-0.393 0.253-0.857 0.38-1.39 0.38v0h-0.93c-0.533 0-1-0.127-1.4-0.38-0.4-0.26-0.727-0.623-0.98-1.09v0l-11.07-20.58c0.067 0.553 0.113 1.093 0.14 1.62 0.027 0.52 0.04 1.007 0.04 1.46v0 23.35h-5.93v-36.15h5.07c0.3 0 0.56 0.007 0.78 0.02 0.22 0.02 0.417 0.063 0.59 0.13 0.173 0.067 0.337 0.173 0.49 0.32 0.147 0.153 0.287 0.353 0.42 0.6v0zM141.8-15v0c0.28 0.533 0.543 1.087 0.79 1.66 0.24 0.573 0.477 1.153 0.71 1.74v0c0.233-0.6 0.477-1.193 0.73-1.78 0.247-0.58 0.51-1.137 0.79-1.67v0l10.71-20.03c0.127-0.247 0.263-0.447 0.41-0.6 0.14-0.147 0.297-0.253 0.47-0.32 0.18-0.067 0.377-0.11 0.59-0.13 0.213-0.013 0.473-0.02 0.78-0.02v0h5.07v36.15h-5.92v-23.35c0-0.433 0.01-0.91 0.03-1.43 0.027-0.513 0.063-1.037 0.11-1.57v0l-10.92 20.5c-0.247 0.467-0.57 0.83-0.97 1.09-0.407 0.253-0.873 0.38-1.4 0.38v0h-0.93c-0.533 0-1-0.127-1.4-0.38-0.4-0.26-0.727-0.623-0.98-1.09v0l-11.07-20.58c0.067 0.553 0.113 1.093 0.14 1.62 0.02 0.52 0.03 1.007 0.03 1.46v0 23.35h-5.92v-36.15h5.07c0.307 0 0.567 0.007 0.78 0.02 0.213 0.02 0.41 0.063 0.59 0.13 0.173 0.067 0.333 0.173 0.48 0.32 0.153 0.153 0.297 0.353 0.43 0.6v0zM170.15-36.15h22.8v5.35h-16.02v10.7h13.52v5.37h-13.52v14.73h-6.78zM205.8-36.15v36.15h-6.75v-36.15zM246.02-18.07v0c0 2.647-0.44 5.077-1.32 7.29-0.887 2.22-2.13 4.13-3.73 5.73-1.6 1.6-3.523 2.84-5.77 3.72-2.253 0.887-4.747 1.33-7.48 1.33v0h-13.8v-36.15h13.8c2.733 0 5.227 0.447 7.48 1.34 2.247 0.887 4.17 2.127 5.77 3.72 1.6 1.593 2.843 3.497 3.73 5.71 0.88 2.22 1.32 4.657 1.32 7.31zM239.15-18.07v0c0-1.987-0.267-3.767-0.8-5.34-0.533-1.58-1.293-2.913-2.28-4-0.98-1.093-2.173-1.933-3.58-2.52-1.413-0.58-3.003-0.87-4.77-0.87v0h-7.02v25.45h7.02c1.767 0 3.357-0.293 4.77-0.88 1.407-0.58 2.6-1.417 3.58-2.51 0.987-1.093 1.747-2.427 2.28-4 0.533-1.573 0.8-3.35 0.8-5.33zM251.3-36.15h22.8v5.35h-16.03v10.02h12.63v5.18h-12.63v10.22h16.03v5.38h-22.8zM283.45-36.15v0c0.3 0 0.55 0.013 0.75 0.04 0.2 0.02 0.38 0.07 0.54 0.15 0.153 0.073 0.307 0.18 0.46 0.32 0.147 0.14 0.313 0.327 0.5 0.56v0l18.97 24.18c-0.067-0.587-0.11-1.157-0.13-1.71-0.027-0.56-0.04-1.083-0.04-1.57v0-21.97h5.92v36.15h-3.47c-0.533 0-0.973-0.083-1.32-0.25-0.353-0.167-0.697-0.467-1.03-0.9v0l-18.9-24.08c0.047 0.533 0.083 1.063 0.11 1.59 0.027 0.527 0.04 1.007 0.04 1.44v0 22.2h-5.93v-36.15zM342.57-8.53v0c0.373 0 0.69 0.143 0.95 0.43v0l2.66 2.87c-1.473 1.82-3.28 3.213-5.42 4.18-2.14 0.967-4.71 1.45-7.71 1.45v0c-2.687 0-5.1-0.46-7.24-1.38-2.14-0.913-3.97-2.187-5.49-3.82-1.513-1.633-2.673-3.583-3.48-5.85-0.807-2.267-1.21-4.74-1.21-7.42v0c0-2.72 0.447-5.21 1.34-7.47 0.9-2.26 2.167-4.207 3.8-5.84 1.633-1.633 3.59-2.903 5.87-3.81 2.273-0.907 4.787-1.36 7.54-1.36v0c2.68 0 5.023 0.43 7.03 1.29 2.007 0.853 3.73 1.99 5.17 3.41v0l-2.25 3.12c-0.133 0.2-0.307 0.377-0.52 0.53-0.207 0.147-0.493 0.22-0.86 0.22v0c-0.38 0-0.773-0.15-1.18-0.45-0.4-0.3-0.907-0.623-1.52-0.97-0.613-0.353-1.393-0.68-2.34-0.98-0.94-0.3-2.133-0.45-3.58-0.45v0c-1.707 0-3.27 0.297-4.69 0.89-1.427 0.593-2.653 1.44-3.68 2.54-1.027 1.1-1.827 2.437-2.4 4.01-0.573 1.573-0.86 3.347-0.86 5.32v0c0 2.027 0.287 3.833 0.86 5.42 0.573 1.58 1.353 2.913 2.34 4 0.987 1.08 2.147 1.91 3.48 2.49 1.333 0.573 2.763 0.86 4.29 0.86v0c0.92 0 1.75-0.05 2.49-0.15 0.74-0.1 1.423-0.26 2.05-0.48 0.627-0.213 1.22-0.49 1.78-0.83 0.56-0.347 1.113-0.77 1.66-1.27v0c0.167-0.147 0.34-0.267 0.52-0.36 0.187-0.093 0.387-0.14 0.6-0.14zM351.25-36.15h22.8v5.35h-16.03v10.02h12.63v5.18h-12.63v10.22h16.03v5.38h-22.8z" fill="#010c80" fill-rule="nonzero" stroke="none" stroke-width="1" stroke-linecap="butt" stroke-linejoin="miter" stroke-miterlimit="10" stroke-dasharray="" stroke-dashoffset="0" font-family="none" font-weight="none" font-size="none" text-anchor="none" style="mix-blend-mode: normal" data-fill-palette-color="primary" opacity="1"></path><path transform="translate(0,39.95)" d="M20.25-4.95v0c1.52 0 2.84-0.137 3.96-0.41 1.127-0.28 2.2-0.66 3.22-1.14v0-6.58h-4.53c-0.433 0-0.773-0.12-1.02-0.36-0.253-0.24-0.38-0.537-0.38-0.89v0-3.8h12.02v14.63c-0.913 0.667-1.867 1.247-2.86 1.74-0.987 0.487-2.043 0.89-3.17 1.21-1.127 0.313-2.33 0.55-3.61 0.71-1.287 0.16-2.67 0.24-4.15 0.24v0c-2.633 0-5.06-0.46-7.28-1.38-2.213-0.913-4.13-2.187-5.75-3.82-1.613-1.633-2.877-3.583-3.79-5.85-0.907-2.267-1.36-4.74-1.36-7.42v0c0-2.72 0.443-5.213 1.33-7.48 0.88-2.267 2.133-4.217 3.76-5.85 1.627-1.633 3.597-2.9 5.91-3.8 2.32-0.9 4.92-1.35 7.8-1.35v0c2.953 0 5.507 0.437 7.66 1.31 2.16 0.873 3.99 2.01 5.49 3.41v0l-1.95 3.05c-0.38 0.62-0.887 0.93-1.52 0.93v0c-0.4 0-0.81-0.133-1.23-0.4v0c-0.533-0.32-1.08-0.637-1.64-0.95-0.553-0.32-1.17-0.597-1.85-0.83-0.673-0.233-1.43-0.423-2.27-0.57-0.84-0.153-1.81-0.23-2.91-0.23v0c-1.787 0-3.4 0.3-4.84 0.9-1.44 0.6-2.67 1.46-3.69 2.58-1.013 1.113-1.797 2.453-2.35 4.02-0.547 1.567-0.82 3.32-0.82 5.26v0c0 2.08 0.29 3.933 0.87 5.56 0.587 1.62 1.403 2.99 2.45 4.11 1.053 1.113 2.303 1.967 3.75 2.56 1.453 0.593 3.037 0.89 4.75 0.89zM49.63-14.13h-2.88v14.13h-6.73v-36.15h11.03c2.467 0 4.58 0.253 6.34 0.76 1.753 0.507 3.193 1.22 4.32 2.14 1.127 0.913 1.953 2.01 2.48 3.29 0.52 1.273 0.78 2.677 0.78 4.21v0c0 1.213-0.177 2.363-0.53 3.45-0.36 1.08-0.877 2.063-1.55 2.95-0.673 0.88-1.507 1.653-2.5 2.32-0.993 0.667-2.123 1.2-3.39 1.6v0c0.847 0.487 1.58 1.18 2.2 2.08v0l9.05 13.35h-6.05c-0.58 0-1.077-0.117-1.49-0.35-0.407-0.233-0.753-0.567-1.04-1v0l-7.59-11.58c-0.287-0.433-0.6-0.74-0.94-0.92-0.34-0.187-0.843-0.28-1.51-0.28zM46.75-30.95v12h4.2c1.267 0 2.37-0.16 3.31-0.48 0.94-0.313 1.717-0.75 2.33-1.31 0.607-0.56 1.06-1.223 1.36-1.99 0.3-0.767 0.45-1.607 0.45-2.52v0c0-1.833-0.603-3.243-1.81-4.23-1.213-0.98-3.06-1.47-5.54-1.47v0zM106.03-18.07v0c0 2.647-0.443 5.1-1.33 7.36-0.88 2.253-2.123 4.207-3.73 5.86-1.593 1.647-3.517 2.933-5.77 3.86-2.247 0.927-4.737 1.39-7.47 1.39v0c-2.733 0-5.23-0.463-7.49-1.39-2.26-0.927-4.193-2.213-5.8-3.86-1.607-1.653-2.853-3.607-3.74-5.86-0.88-2.26-1.32-4.713-1.32-7.36v0c0-2.653 0.44-5.11 1.32-7.37 0.887-2.26 2.133-4.213 3.74-5.86 1.607-1.647 3.54-2.933 5.8-3.86 2.26-0.927 4.757-1.39 7.49-1.39v0c2.733 0 5.223 0.467 7.47 1.4 2.253 0.933 4.177 2.22 5.77 3.86 1.607 1.64 2.85 3.59 3.73 5.85 0.887 2.26 1.33 4.717 1.33 7.37zM99.13-18.07v0c0-1.987-0.263-3.767-0.79-5.34-0.527-1.58-1.28-2.92-2.26-4.02-0.987-1.1-2.183-1.94-3.59-2.52-1.407-0.587-2.993-0.88-4.76-0.88v0c-1.767 0-3.36 0.293-4.78 0.88-1.413 0.58-2.617 1.42-3.61 2.52-0.993 1.1-1.757 2.44-2.29 4.02-0.533 1.573-0.8 3.353-0.8 5.34v0c0 1.98 0.267 3.757 0.8 5.33 0.533 1.573 1.297 2.907 2.29 4 0.993 1.093 2.197 1.93 3.61 2.51 1.42 0.587 3.013 0.88 4.78 0.88v0c1.767 0 3.353-0.293 4.76-0.88 1.407-0.58 2.603-1.417 3.59-2.51 0.98-1.093 1.733-2.427 2.26-4 0.527-1.573 0.79-3.35 0.79-5.33zM125.88-5.43v0c1.3 0 2.46-0.217 3.48-0.65 1.027-0.433 1.893-1.04 2.6-1.82 0.713-0.787 1.257-1.737 1.63-2.85 0.373-1.12 0.56-2.37 0.56-3.75v0-21.65h6.73v21.65c0 2.147-0.347 4.133-1.04 5.96-0.693 1.827-1.69 3.403-2.99 4.73-1.3 1.32-2.873 2.353-4.72 3.1-1.853 0.74-3.937 1.11-6.25 1.11v0c-2.32 0-4.403-0.37-6.25-1.11-1.853-0.747-3.427-1.78-4.72-3.1-1.287-1.327-2.277-2.903-2.97-4.73-0.693-1.827-1.04-3.813-1.04-5.96v0-21.65h6.73v21.62c0 1.387 0.187 2.637 0.56 3.75 0.373 1.12 0.91 2.077 1.61 2.87 0.7 0.787 1.563 1.397 2.59 1.83 1.027 0.433 2.19 0.65 3.49 0.65zM159.73-12.73h-5.05v12.73h-6.73v-36.15h11.78c2.413 0 4.503 0.283 6.27 0.85 1.767 0.567 3.227 1.357 4.38 2.37 1.147 1.02 1.997 2.237 2.55 3.65 0.547 1.42 0.82 2.97 0.82 4.65v0c0 1.753-0.29 3.36-0.87 4.82-0.587 1.453-1.463 2.707-2.63 3.76-1.167 1.047-2.623 1.863-4.37 2.45-1.753 0.58-3.803 0.87-6.15 0.87zM154.68-30.95v12.97h5.05c1.233 0 2.307-0.153 3.22-0.46 0.92-0.307 1.68-0.747 2.28-1.32 0.6-0.58 1.05-1.28 1.35-2.1 0.3-0.827 0.45-1.75 0.45-2.77v0c0-0.967-0.15-1.84-0.45-2.62-0.3-0.787-0.75-1.453-1.35-2-0.6-0.553-1.36-0.973-2.28-1.26-0.913-0.293-1.987-0.44-3.22-0.44v0z" fill="#010c80" fill-rule="nonzero" stroke="none" stroke-width="1" stroke-linecap="butt" stroke-linejoin="miter" stroke-miterlimit="10" stroke-dasharray="" stroke-dashoffset="0" font-family="none" font-weight="none" font-size="none" text-anchor="none" style="mix-blend-mode: normal" data-fill-palette-color="primary" opacity="1"></path></g></svg></g></svg></g><g transform="matrix(1,0,0,1,0,94.099791149702)"><svg viewBox="0 0 375.74399999999997 20.05301358733716" height="20.05301358733716" width="375.74399999999997"><g transform="matrix(1,0,0,1,0,0)"><svg width="375.74399999999997" viewBox="3.25 -37.6 713.88 38.1" height="20.05301358733716" data-palette-color="#010c80"><path d="M18.9-37.6L18.9-37.6Q21.4-37.6 23.73-36.77 26.05-35.95 27.9-34.55 29.75-33.15 30.95-31.3 32.15-29.45 32.45-27.35L32.45-27.35Q32.55-26.9 32.48-26.75 32.4-26.6 32.1-26.6L32.1-26.6 28.35-26.3Q28.1-26.25 28-26.4 27.9-26.55 27.85-26.8L27.85-26.8Q27.15-30 24.83-31.98 22.5-33.95 19.05-33.95L19.05-33.95Q13.85-33.95 11.05-30.1 8.25-26.25 8.25-18.5L8.25-18.5Q8.25-11 11-7.15 13.75-3.3 19.3-3.3L19.3-3.3Q22.85-3.3 25.23-5 27.6-6.7 29.05-10.45L29.05-10.45Q29.2-10.75 29.65-10.65L29.65-10.65 32.6-9.95Q32.75-9.9 32.85-9.75 32.95-9.6 32.85-9.25L32.85-9.25Q32.45-7.8 31.63-6.4 30.8-5 29.6-3.78 28.4-2.55 26.8-1.58 25.2-0.6 23.28-0.05 21.35 0.5 19.1 0.5L19.1 0.5Q14.15 0.5 10.58-1.8 7-4.1 5.13-8.4 3.25-12.7 3.25-18.6L3.25-18.6Q3.25-24.5 5.13-28.78 7-33.05 10.53-35.33 14.05-37.6 18.9-37.6L18.9-37.6ZM50.3 0.5L50.3 0.5Q46.55 0.5 43.67-1.23 40.8-2.95 39.22-6.03 37.65-9.1 37.65-13.1L37.65-13.1Q37.65-17.25 39.27-20.38 40.9-23.5 43.75-25.25 46.6-27 50.35-27L50.35-27Q54.15-27 56.97-25.23 59.8-23.45 61.37-20.33 62.95-17.2 62.95-13.15L62.95-13.15Q62.95-9.15 61.35-6.08 59.75-3 56.92-1.25 54.1 0.5 50.3 0.5L50.3 0.5ZM50.4-2.65L50.4-2.65Q53-2.65 54.85-3.93 56.7-5.2 57.67-7.58 58.65-9.95 58.65-13.25L58.65-13.25Q58.65-16.55 57.65-18.93 56.65-21.3 54.8-22.6 52.95-23.9 50.35-23.9L50.35-23.9Q47.8-23.9 45.9-22.6 44-21.3 42.97-18.93 41.95-16.55 41.95-13.25L41.95-13.25Q41.95-10 42.97-7.6 44-5.2 45.9-3.93 47.8-2.65 50.4-2.65L50.4-2.65ZM69.85 0L69.85 0Q69.15 0 69.15-0.65L69.15-0.65 69.15-25.85Q69.15-26.5 69.7-26.5L69.7-26.5 72.7-26.5Q73.2-26.5 73.2-25.95L73.2-25.95 73.2-23.05Q73.2-22.8 73.32-22.75 73.45-22.7 73.7-22.9L73.7-22.9Q75.3-24.2 76.67-25.13 78.05-26.05 79.47-26.53 80.9-27 82.55-27L82.55-27Q85.5-27 87.27-25.65 89.05-24.3 89.65-22.6L89.65-22.6Q89.75-22.4 89.95-22.45 90.15-22.5 90.35-22.7L90.35-22.7Q91.95-24.05 93.37-25 94.8-25.95 96.27-26.48 97.75-27 99.4-27L99.4-27Q103.05-27 105.05-24.93 107.05-22.85 107.05-19.35L107.05-19.35 107.05-0.8Q107.05 0 106.3 0L106.3 0 103.5 0Q103.15 0 103-0.18 102.85-0.35 102.85-0.65L102.85-0.65 102.85-18.5Q102.85-20.95 101.67-22.33 100.5-23.7 98-23.7L98-23.7Q96.55-23.7 95.22-23.15 93.9-22.6 92.82-21.8 91.75-21 90.9-20.3L90.9-20.3Q90.5-19.95 90.35-19.63 90.2-19.3 90.2-18.8L90.2-18.8 90.2-0.8Q90.2 0 89.45 0L89.45 0 86.65 0Q86.35 0 86.17-0.18 86-0.35 86-0.65L86-0.65 86-18.5Q86-20.95 84.85-22.33 83.7-23.7 81.2-23.7L81.2-23.7Q79.1-23.7 77.35-22.7 75.6-21.7 73.35-19.65L73.35-19.65 73.35-0.75Q73.35 0 72.6 0L72.6 0 69.85 0ZM115.14 0L115.14 0Q114.44 0 114.44-0.65L114.44-0.65 114.44-25.85Q114.44-26.5 114.99-26.5L114.99-26.5 117.99-26.5Q118.49-26.5 118.49-25.95L118.49-25.95 118.49-23.05Q118.49-22.8 118.62-22.75 118.74-22.7 118.99-22.9L118.99-22.9Q120.59-24.2 121.97-25.13 123.34-26.05 124.77-26.53 126.19-27 127.84-27L127.84-27Q130.79-27 132.57-25.65 134.34-24.3 134.94-22.6L134.94-22.6Q135.04-22.4 135.24-22.45 135.44-22.5 135.64-22.7L135.64-22.7Q137.24-24.05 138.67-25 140.09-25.95 141.57-26.48 143.04-27 144.69-27L144.69-27Q148.34-27 150.34-24.93 152.34-22.85 152.34-19.35L152.34-19.35 152.34-0.8Q152.34 0 151.59 0L151.59 0 148.79 0Q148.44 0 148.29-0.18 148.14-0.35 148.14-0.65L148.14-0.65 148.14-18.5Q148.14-20.95 146.97-22.33 145.79-23.7 143.29-23.7L143.29-23.7Q141.84-23.7 140.52-23.15 139.19-22.6 138.12-21.8 137.04-21 136.19-20.3L136.19-20.3Q135.79-19.95 135.64-19.63 135.49-19.3 135.49-18.8L135.49-18.8 135.49-0.8Q135.49 0 134.74 0L134.74 0 131.94 0Q131.64 0 131.47-0.18 131.29-0.35 131.29-0.65L131.29-0.65 131.29-18.5Q131.29-20.95 130.14-22.33 128.99-23.7 126.49-23.7L126.49-23.7Q124.39-23.7 122.64-22.7 120.89-21.7 118.64-19.65L118.64-19.65 118.64-0.75Q118.64 0 117.89 0L117.89 0 115.14 0ZM168.74-2.8L168.74-2.8Q170.89-2.8 172.87-3.98 174.84-5.15 176.79-7.15L176.79-7.15 176.79-25.75Q176.79-26.5 177.59-26.5L177.59-26.5 180.34-26.5Q181.04-26.5 181.04-25.8L181.04-25.8 180.94-0.65Q180.94 0 180.39 0L180.39 0 177.49 0Q176.94 0 176.94-0.55L176.94-0.55 176.94-3.5Q176.94-3.75 176.84-3.8 176.74-3.85 176.49-3.65L176.49-3.65Q173.74-1.3 171.62-0.4 169.49 0.5 167.39 0.5L167.39 0.5Q165.09 0.5 163.29-0.45 161.49-1.4 160.44-3.13 159.39-4.85 159.39-7.15L159.39-7.15 159.39-25.7Q159.39-26.5 160.14-26.5L160.14-26.5 162.94-26.5Q163.59-26.5 163.59-25.8L163.59-25.8 163.59-8.25Q163.59-5.8 164.97-4.3 166.34-2.8 168.74-2.8L168.74-2.8ZM189.39 0L189.39 0Q188.69 0 188.69-0.65L188.69-0.65 188.69-25.85Q188.69-26.5 189.24-26.5L189.24-26.5 192.24-26.5Q192.79-26.5 192.79-25.95L192.79-25.95 192.79-23.05Q192.79-22.8 192.89-22.75 192.99-22.7 193.24-22.9L193.24-22.9Q194.89-24.2 196.31-25.13 197.74-26.05 199.24-26.53 200.74-27 202.44-27L202.44-27Q206.34-27 208.41-24.9 210.49-22.8 210.49-19.45L210.49-19.45 210.49-0.8Q210.49 0 209.74 0L209.74 0 206.94 0Q206.59 0 206.44-0.18 206.29-0.35 206.29-0.65L206.29-0.65 206.29-18.5Q206.29-20.95 205.04-22.33 203.79-23.7 201.09-23.7L201.09-23.7Q199.64-23.7 198.36-23.23 197.09-22.75 195.79-21.88 194.49-21 192.89-19.65L192.89-19.65 192.89-0.75Q192.89 0 192.14 0L192.14 0 189.39 0ZM222.09-25.85L222.09-0.85Q222.09-0.35 221.91-0.18 221.74 0 221.19 0L221.19 0 218.64 0Q218.19 0 218.04-0.15 217.89-0.3 217.89-0.7L217.89-0.7 217.89-25.8Q217.89-26.5 218.49-26.5L218.49-26.5 221.54-26.5Q222.09-26.5 222.09-25.85L222.09-25.85ZM222.29-36.35L222.29-32.2Q222.29-31.25 221.39-31.25L221.39-31.25 218.49-31.25Q218.04-31.25 217.89-31.48 217.74-31.7 217.74-32.1L217.74-32.1 217.74-36.3Q217.74-37.1 218.44-37.1L218.44-37.1 221.59-37.1Q222.29-37.1 222.29-36.35L222.29-36.35ZM240.83-27L240.83-27Q243.43-27 245.41-26.18 247.38-25.35 248.81-23.93 250.23-22.5 251.18-20.8L251.18-20.8Q251.48-20.2 250.93-20.05L250.93-20.05 248.18-19.4Q247.83-19.25 247.53-19.7L247.53-19.7Q246.53-21.15 245.56-22.05 244.58-22.95 243.48-23.43 242.38-23.9 241.08-23.9L241.08-23.9Q238.53-23.9 236.61-22.63 234.68-21.35 233.63-18.95 232.58-16.55 232.58-13.25L232.58-13.25Q232.58-9.9 233.66-7.5 234.73-5.1 236.66-3.85 238.58-2.6 241.18-2.6L241.18-2.6Q243.58-2.6 245.33-3.8 247.08-5 248.53-7.3L248.53-7.3Q248.68-7.55 248.81-7.58 248.93-7.6 249.18-7.5L249.18-7.5 251.33-6.7Q251.68-6.55 251.53-6.05L251.53-6.05Q250.78-4.75 249.78-3.55 248.78-2.35 247.46-1.45 246.13-0.55 244.48-0.03 242.83 0.5 240.83 0.5L240.83 0.5Q237.13 0.5 234.31-1.23 231.48-2.95 229.88-6.03 228.28-9.1 228.28-13.15L228.28-13.15Q228.28-17.25 229.91-20.35 231.53-23.45 234.36-25.23 237.18-27 240.83-27L240.83-27ZM272.18-3.2L272.18-3.2Q270.33-1.4 268.16-0.45 265.98 0.5 263.28 0.5L263.28 0.5Q259.38 0.5 257.16-1.5 254.93-3.5 254.93-6.75L254.93-6.75Q254.93-9.4 256.43-11.33 257.93-13.25 260.88-14.38 263.83-15.5 268.13-15.75L268.13-15.75 272.03-16.05Q272.33-16.1 272.58-16.25 272.83-16.4 272.83-16.8L272.83-16.8 272.83-18.15Q272.83-20.85 271.16-22.43 269.48-24 266.63-24L266.63-24Q264.43-24 262.66-23 260.88-22 259.48-20L259.48-20Q259.28-19.75 259.16-19.68 259.03-19.6 258.73-19.7L258.73-19.7 256.03-20.6Q255.88-20.7 255.81-20.85 255.73-21 255.93-21.4L255.93-21.4Q257.43-24 260.16-25.5 262.88-27 266.83-27L266.83-27Q270.18-27 272.41-25.98 274.63-24.95 275.75-23.03 276.88-21.1 276.88-18.45L276.88-18.45 276.88-0.75Q276.88-0.3 276.73-0.15 276.58 0 276.23 0L276.23 0 273.68 0Q273.33 0 273.18-0.23 273.03-0.45 272.98-0.8L272.98-0.8 272.93-3.1Q272.78-3.8 272.18-3.2L272.18-3.2ZM272.83-12.7L272.83-12.7Q272.83-13.55 272.13-13.5L272.13-13.5 268.83-13.2Q266.53-13.1 264.73-12.63 262.93-12.15 261.68-11.4 260.43-10.65 259.78-9.63 259.13-8.6 259.13-7.25L259.13-7.25Q259.13-5.05 260.66-3.83 262.18-2.6 264.78-2.6L264.78-2.6Q266.38-2.6 267.86-3.18 269.33-3.75 270.43-4.65L270.43-4.65Q271.58-5.6 272.21-6.6 272.83-7.6 272.83-8.55L272.83-8.55 272.83-12.7ZM297.03-23.35L290.68-23.35Q290.28-23.35 290.28-22.95L290.28-22.95 290.28-7.1Q290.28-4.75 291.08-3.95 291.88-3.15 293.48-3.15L293.48-3.15 296.93-3.15Q297.18-3.15 297.33-3.03 297.48-2.9 297.48-2.6L297.48-2.6 297.43-0.9Q297.43-0.4 296.83-0.25L296.83-0.25Q296.33-0.15 295.4-0.1 294.48-0.05 293.6-0.03 292.73 0 292.13 0L292.13 0Q288.98 0 287.53-1.48 286.08-2.95 286.08-6.15L286.08-6.15 286.08-22.85Q286.08-23.35 285.58-23.35L285.58-23.35 281.58-23.35Q281.03-23.35 281.03-23.9L281.03-23.9 281.03-26Q281.03-26.5 281.53-26.5L281.53-26.5 285.78-26.5Q286.13-26.5 286.13-26.9L286.13-26.9 286.68-34.85Q286.73-35.5 287.23-35.5L287.23-35.5 289.73-35.5Q290.33-35.5 290.33-34.8L290.33-34.8 290.33-26.9Q290.33-26.5 290.73-26.5L290.73-26.5 297.03-26.5Q297.58-26.5 297.58-26.05L297.58-26.05 297.58-23.9Q297.58-23.35 297.03-23.35L297.03-23.35ZM305.18-11.6L305.18-11.6Q305.18-9.15 306.35-7.13 307.53-5.1 309.5-3.9 311.48-2.7 313.93-2.7L313.93-2.7Q316.43-2.7 318.38-3.73 320.33-4.75 321.73-6.85L321.73-6.85Q321.93-7.05 322.05-7.08 322.18-7.1 322.43-7L322.43-7 324.53-5.95Q324.98-5.7 324.63-5.25L324.63-5.25Q323.28-3.25 321.65-1.98 320.03-0.7 318.03-0.1 316.03 0.5 313.53 0.5L313.53 0.5Q309.83 0.5 306.98-1.2 304.13-2.9 302.48-5.95 300.83-9 300.83-13L300.83-13Q300.83-17.35 302.5-20.48 304.18-23.6 307.05-25.3 309.93-27 313.48-27L313.48-27Q317.13-27 319.83-25.4 322.53-23.8 324.03-20.75 325.53-17.7 325.53-13.4L325.53-13.4Q325.53-13.05 325.45-12.7 325.38-12.35 324.78-12.35L324.78-12.35 305.63-12.35Q305.43-12.35 305.3-12.13 305.18-11.9 305.18-11.6L305.18-11.6ZM305.28-15.1L320.48-15.1Q321.03-15.1 321.18-15.23 321.33-15.35 321.33-15.8L321.33-15.8Q321.33-17.95 320.4-19.83 319.48-21.7 317.75-22.85 316.03-24 313.58-24L313.58-24Q310.88-24 309.03-22.73 307.18-21.45 306.23-19.4 305.28-17.35 305.28-15.1L305.28-15.1ZM376.02-26.5L376.02-26.5Q376.32-26.5 376.47-26.28 376.62-26.05 376.52-25.75L376.52-25.75 368.87-0.65Q368.77-0.3 368.55-0.15 368.32 0 367.92 0L367.92 0 365.52 0Q364.67 0 364.47-0.65L364.47-0.65 358.52-19.35Q358.32-19.8 358.17-19.8 358.02-19.8 357.92-19.35L357.92-19.35 352.27-0.65Q352.17-0.3 351.95-0.15 351.72 0 351.32 0L351.32 0 348.77 0Q347.97 0 347.72-0.65L347.72-0.65 339.82-25.75Q339.77-26.05 339.92-26.28 340.07-26.5 340.42-26.5L340.42-26.5 343.37-26.5Q343.67-26.5 343.87-26.38 344.07-26.25 344.17-25.95L344.17-25.95 350.12-6.5Q350.27-6 350.47-6.03 350.67-6.05 350.87-6.55L350.87-6.55 356.77-26Q356.87-26.25 357.05-26.38 357.22-26.5 357.47-26.5L357.47-26.5 359.82-26.5Q360.12-26.5 360.32-26.38 360.52-26.25 360.57-25.95L360.57-25.95 366.72-6.5Q366.87-6 367.07-6.03 367.27-6.05 367.42-6.55L367.42-6.55 373.17-25.95Q373.32-26.25 373.52-26.38 373.72-26.5 374.02-26.5L374.02-26.5 376.02-26.5ZM386.12-25.85L386.12-0.85Q386.12-0.35 385.94-0.18 385.77 0 385.22 0L385.22 0 382.67 0Q382.22 0 382.07-0.15 381.92-0.3 381.92-0.7L381.92-0.7 381.92-25.8Q381.92-26.5 382.52-26.5L382.52-26.5 385.57-26.5Q386.12-26.5 386.12-25.85L386.12-25.85ZM386.32-36.35L386.32-32.2Q386.32-31.25 385.42-31.25L385.42-31.25 382.52-31.25Q382.07-31.25 381.92-31.48 381.77-31.7 381.77-32.1L381.77-32.1 381.77-36.3Q381.77-37.1 382.47-37.1L382.47-37.1 385.62-37.1Q386.32-37.1 386.32-36.35L386.32-36.35ZM407.22-23.35L400.87-23.35Q400.47-23.35 400.47-22.95L400.47-22.95 400.47-7.1Q400.47-4.75 401.27-3.95 402.07-3.15 403.67-3.15L403.67-3.15 407.12-3.15Q407.37-3.15 407.52-3.03 407.67-2.9 407.67-2.6L407.67-2.6 407.62-0.9Q407.62-0.4 407.02-0.25L407.02-0.25Q406.52-0.15 405.59-0.1 404.67-0.05 403.79-0.03 402.92 0 402.32 0L402.32 0Q399.17 0 397.72-1.48 396.27-2.95 396.27-6.15L396.27-6.15 396.27-22.85Q396.27-23.35 395.77-23.35L395.77-23.35 391.77-23.35Q391.22-23.35 391.22-23.9L391.22-23.9 391.22-26Q391.22-26.5 391.72-26.5L391.72-26.5 395.97-26.5Q396.32-26.5 396.32-26.9L396.32-26.9 396.87-34.85Q396.92-35.5 397.42-35.5L397.42-35.5 399.92-35.5Q400.52-35.5 400.52-34.8L400.52-34.8 400.52-26.9Q400.52-26.5 400.92-26.5L400.92-26.5 407.22-26.5Q407.77-26.5 407.77-26.05L407.77-26.05 407.77-23.9Q407.77-23.35 407.22-23.35L407.22-23.35ZM413.91 0L413.91 0Q413.26 0 413.26-0.65L413.26-0.65 413.26-36.45Q413.26-37.1 413.81-37.1L413.81-37.1 416.76-37.1Q417.31-37.1 417.31-36.5L417.31-36.5 417.31-23.15Q417.31-22.9 417.41-22.85 417.51-22.8 417.76-23L417.76-23Q419.51-24.35 420.99-25.25 422.46-26.15 423.89-26.58 425.31-27 427.01-27L427.01-27Q430.91-27 432.96-24.93 435.01-22.85 435.01-19.4L435.01-19.4 435.01-0.8Q435.01 0 434.26 0L434.26 0 431.46 0Q431.11 0 430.96-0.18 430.81-0.35 430.81-0.65L430.81-0.65 430.81-18.5Q430.81-20.95 429.56-22.33 428.31-23.7 425.61-23.7L425.61-23.7Q424.16-23.7 422.89-23.23 421.61-22.75 420.31-21.88 419.01-21 417.46-19.65L417.46-19.65 417.46-0.75Q417.46 0 416.66 0L416.66 0 413.91 0ZM464.11-27L464.11-27Q466.71-27 468.68-26.18 470.66-25.35 472.08-23.93 473.51-22.5 474.46-20.8L474.46-20.8Q474.76-20.2 474.21-20.05L474.21-20.05 471.46-19.4Q471.11-19.25 470.81-19.7L470.81-19.7Q469.81-21.15 468.83-22.05 467.86-22.95 466.76-23.43 465.66-23.9 464.36-23.9L464.36-23.9Q461.81-23.9 459.88-22.63 457.96-21.35 456.91-18.95 455.86-16.55 455.86-13.25L455.86-13.25Q455.86-9.9 456.93-7.5 458.01-5.1 459.93-3.85 461.86-2.6 464.46-2.6L464.46-2.6Q466.86-2.6 468.61-3.8 470.36-5 471.81-7.3L471.81-7.3Q471.96-7.55 472.08-7.58 472.21-7.6 472.46-7.5L472.46-7.5 474.61-6.7Q474.96-6.55 474.81-6.05L474.81-6.05Q474.06-4.75 473.06-3.55 472.06-2.35 470.73-1.45 469.41-0.55 467.76-0.03 466.11 0.5 464.11 0.5L464.11 0.5Q460.41 0.5 457.58-1.23 454.76-2.95 453.16-6.03 451.56-9.1 451.56-13.15L451.56-13.15Q451.56-17.25 453.18-20.35 454.81-23.45 457.63-25.23 460.46-27 464.11-27L464.11-27ZM490.96 0.5L490.96 0.5Q487.21 0.5 484.33-1.23 481.46-2.95 479.88-6.03 478.31-9.1 478.31-13.1L478.31-13.1Q478.31-17.25 479.93-20.38 481.56-23.5 484.41-25.25 487.26-27 491.01-27L491.01-27Q494.81-27 497.63-25.23 500.46-23.45 502.03-20.33 503.61-17.2 503.61-13.15L503.61-13.15Q503.61-9.15 502.01-6.08 500.41-3 497.58-1.25 494.76 0.5 490.96 0.5L490.96 0.5ZM491.06-2.65L491.06-2.65Q493.66-2.65 495.51-3.93 497.36-5.2 498.33-7.58 499.31-9.95 499.31-13.25L499.31-13.25Q499.31-16.55 498.31-18.93 497.31-21.3 495.46-22.6 493.61-23.9 491.01-23.9L491.01-23.9Q488.46-23.9 486.56-22.6 484.66-21.3 483.63-18.93 482.61-16.55 482.61-13.25L482.61-13.25Q482.61-10 483.63-7.6 484.66-5.2 486.56-3.93 488.46-2.65 491.06-2.65L491.06-2.65ZM510.5 0L510.5 0Q509.8 0 509.8-0.65L509.8-0.65 509.8-25.85Q509.8-26.5 510.35-26.5L510.35-26.5 513.35-26.5Q513.9-26.5 513.9-25.95L513.9-25.95 513.9-23.05Q513.9-22.8 514-22.75 514.1-22.7 514.35-22.9L514.35-22.9Q516-24.2 517.43-25.13 518.85-26.05 520.35-26.53 521.85-27 523.55-27L523.55-27Q527.45-27 529.53-24.9 531.6-22.8 531.6-19.45L531.6-19.45 531.6-0.8Q531.6 0 530.85 0L530.85 0 528.05 0Q527.7 0 527.55-0.18 527.4-0.35 527.4-0.65L527.4-0.65 527.4-18.5Q527.4-20.95 526.15-22.33 524.9-23.7 522.2-23.7L522.2-23.7Q520.75-23.7 519.48-23.23 518.2-22.75 516.9-21.88 515.6-21 514-19.65L514-19.65 514-0.75Q514 0 513.25 0L513.25 0 510.5 0ZM551.75-26.5L551.75-26.5Q552-26.5 552.13-26.35 552.25-26.2 552.25-26L552.25-26 552.25-23.85Q552.25-23.35 551.75-23.35L551.75-23.35 546.05-23.35Q545.65-23.35 545.65-22.95L545.65-22.95 545.65-0.7Q545.65 0 545.05 0L545.05 0 542 0Q541.45 0 541.45-0.65L541.45-0.65 541.45-23Q541.45-23.35 541.1-23.35L541.1-23.35 536.2-23.35Q535.7-23.35 535.7-23.85L535.7-23.85 535.7-26Q535.7-26.2 535.83-26.35 535.95-26.5 536.25-26.5L536.25-26.5 541-26.5Q541.45-26.5 541.45-27L541.45-27 541.45-30.65Q541.45-33.8 543-35.45 544.55-37.1 547.7-37.1L547.7-37.1 551.85-37.1Q552.5-37.1 552.5-36.5L552.5-36.5 552.5-34.55Q552.5-34.3 552.38-34.18 552.25-34.05 551.95-34.05L551.95-34.05 548.45-34.05Q546.9-34.05 546.23-33.08 545.55-32.1 545.55-30.45L545.55-30.45 545.55-26.95Q545.55-26.5 546-26.5L546-26.5 551.75-26.5ZM561.5-25.85L561.5-0.85Q561.5-0.35 561.32-0.18 561.15 0 560.6 0L560.6 0 558.05 0Q557.6 0 557.45-0.15 557.3-0.3 557.3-0.7L557.3-0.7 557.3-25.8Q557.3-26.5 557.9-26.5L557.9-26.5 560.95-26.5Q561.5-26.5 561.5-25.85L561.5-25.85ZM561.7-36.35L561.7-32.2Q561.7-31.25 560.8-31.25L560.8-31.25 557.9-31.25Q557.45-31.25 557.3-31.48 557.15-31.7 557.15-32.1L557.15-32.1 557.15-36.3Q557.15-37.1 557.85-37.1L557.85-37.1 561-37.1Q561.7-37.1 561.7-36.35L561.7-36.35ZM588.1 0L588.1 0Q587.75 0 587.57-0.18 587.4-0.35 587.4-0.7L587.4-0.7 587.4-2.8Q587.4-3.2 587.22-3.25 587.05-3.3 586.75-3L586.75-3Q586.2-2.5 585.17-1.65 584.15-0.8 582.6-0.15 581.05 0.5 578.9 0.5L578.9 0.5Q575.75 0.5 573.25-1 570.75-2.5 569.27-5.48 567.8-8.45 567.8-12.85L567.8-12.85Q567.8-17.1 569.27-20.28 570.75-23.45 573.42-25.23 576.1-27 579.5-27L579.5-27Q581.95-27 583.6-26.2 585.25-25.4 586.5-24.35L586.5-24.35Q586.95-24 587.12-24.08 587.3-24.15 587.3-24.7L587.3-24.7 587.3-36.45Q587.3-37.1 587.85-37.1L587.85-37.1 590.9-37.1Q591.45-37.1 591.45-36.45L591.45-36.45 591.45-0.8Q591.45-0.35 591.3-0.18 591.15 0 590.65 0L590.65 0 588.1 0ZM587.25-20.65L587.25-20.65Q585.7-22.2 584.1-23.05 582.5-23.9 580.5-23.9L580.5-23.9Q578.1-23.9 576.17-22.68 574.25-21.45 573.17-19 572.1-16.55 572.1-13L572.1-13Q572.1-9.35 573.2-7.03 574.3-4.7 576.15-3.63 578-2.55 580.2-2.55L580.2-2.55Q582.25-2.55 583.82-3.5 585.4-4.45 586.32-5.85 587.25-7.25 587.25-8.6L587.25-8.6 587.25-20.65ZM601.99-11.6L601.99-11.6Q601.99-9.15 603.17-7.13 604.34-5.1 606.32-3.9 608.29-2.7 610.74-2.7L610.74-2.7Q613.24-2.7 615.19-3.73 617.14-4.75 618.54-6.85L618.54-6.85Q618.74-7.05 618.87-7.08 618.99-7.1 619.24-7L619.24-7 621.34-5.95Q621.79-5.7 621.44-5.25L621.44-5.25Q620.09-3.25 618.47-1.98 616.84-0.7 614.84-0.1 612.84 0.5 610.34 0.5L610.34 0.5Q606.64 0.5 603.79-1.2 600.94-2.9 599.29-5.95 597.64-9 597.64-13L597.64-13Q597.64-17.35 599.32-20.48 600.99-23.6 603.87-25.3 606.74-27 610.29-27L610.29-27Q613.94-27 616.64-25.4 619.34-23.8 620.84-20.75 622.34-17.7 622.34-13.4L622.34-13.4Q622.34-13.05 622.27-12.7 622.19-12.35 621.59-12.35L621.59-12.35 602.44-12.35Q602.24-12.35 602.12-12.13 601.99-11.9 601.99-11.6L601.99-11.6ZM602.09-15.1L617.29-15.1Q617.84-15.1 617.99-15.23 618.14-15.35 618.14-15.8L618.14-15.8Q618.14-17.95 617.22-19.83 616.29-21.7 614.57-22.85 612.84-24 610.39-24L610.39-24Q607.69-24 605.84-22.73 603.99-21.45 603.04-19.4 602.09-17.35 602.09-15.1L602.09-15.1ZM628.94 0L628.94 0Q628.24 0 628.24-0.65L628.24-0.65 628.24-25.85Q628.24-26.5 628.79-26.5L628.79-26.5 631.79-26.5Q632.34-26.5 632.34-25.95L632.34-25.95 632.34-23.05Q632.34-22.8 632.44-22.75 632.54-22.7 632.79-22.9L632.79-22.9Q634.44-24.2 635.87-25.13 637.29-26.05 638.79-26.53 640.29-27 641.99-27L641.99-27Q645.89-27 647.97-24.9 650.04-22.8 650.04-19.45L650.04-19.45 650.04-0.8Q650.04 0 649.29 0L649.29 0 646.49 0Q646.14 0 645.99-0.18 645.84-0.35 645.84-0.65L645.84-0.65 645.84-18.5Q645.84-20.95 644.59-22.33 643.34-23.7 640.64-23.7L640.64-23.7Q639.19-23.7 637.91-23.23 636.64-22.75 635.34-21.88 634.04-21 632.44-19.65L632.44-19.65 632.44-0.75Q632.44 0 631.69 0L631.69 0 628.94 0ZM668.44-27L668.44-27Q671.04-27 673.01-26.18 674.99-25.35 676.41-23.93 677.84-22.5 678.79-20.8L678.79-20.8Q679.09-20.2 678.54-20.05L678.54-20.05 675.79-19.4Q675.44-19.25 675.14-19.7L675.14-19.7Q674.14-21.15 673.16-22.05 672.19-22.95 671.09-23.43 669.99-23.9 668.69-23.9L668.69-23.9Q666.14-23.9 664.21-22.63 662.29-21.35 661.24-18.95 660.19-16.55 660.19-13.25L660.19-13.25Q660.19-9.9 661.26-7.5 662.34-5.1 664.26-3.85 666.19-2.6 668.79-2.6L668.79-2.6Q671.19-2.6 672.94-3.8 674.69-5 676.14-7.3L676.14-7.3Q676.29-7.55 676.41-7.58 676.54-7.6 676.79-7.5L676.79-7.5 678.94-6.7Q679.29-6.55 679.14-6.05L679.14-6.05Q678.39-4.75 677.39-3.55 676.39-2.35 675.06-1.45 673.74-0.55 672.09-0.03 670.44 0.5 668.44 0.5L668.44 0.5Q664.74 0.5 661.91-1.23 659.09-2.95 657.49-6.03 655.89-9.1 655.89-13.15L655.89-13.15Q655.89-17.25 657.51-20.35 659.14-23.45 661.96-25.23 664.79-27 668.44-27L668.44-27ZM686.98-11.6L686.98-11.6Q686.98-9.15 688.16-7.13 689.33-5.1 691.31-3.9 693.28-2.7 695.73-2.7L695.73-2.7Q698.23-2.7 700.18-3.73 702.13-4.75 703.53-6.85L703.53-6.85Q703.73-7.05 703.86-7.08 703.98-7.1 704.23-7L704.23-7 706.33-5.95Q706.78-5.7 706.43-5.25L706.43-5.25Q705.08-3.25 703.46-1.98 701.83-0.7 699.83-0.1 697.83 0.5 695.33 0.5L695.33 0.5Q691.63 0.5 688.78-1.2 685.93-2.9 684.28-5.95 682.63-9 682.63-13L682.63-13Q682.63-17.35 684.31-20.48 685.98-23.6 688.86-25.3 691.73-27 695.28-27L695.28-27Q698.93-27 701.63-25.4 704.33-23.8 705.83-20.75 707.33-17.7 707.33-13.4L707.33-13.4Q707.33-13.05 707.26-12.7 707.18-12.35 706.58-12.35L706.58-12.35 687.43-12.35Q687.23-12.35 687.11-12.13 686.98-11.9 686.98-11.6L686.98-11.6ZM687.08-15.1L702.28-15.1Q702.83-15.1 702.98-15.23 703.13-15.35 703.13-15.8L703.13-15.8Q703.13-17.95 702.21-19.83 701.28-21.7 699.56-22.85 697.83-24 695.38-24L695.38-24Q692.68-24 690.83-22.73 688.98-21.45 688.03-19.4 687.08-17.35 687.08-15.1L687.08-15.1ZM717.13-5.05L717.13-0.8Q717.13 0 716.23 0L716.23 0 712.73 0Q711.98 0 711.98-0.7L711.98-0.7 711.98-5Q711.98-5.65 712.53-5.65L712.53-5.65 716.63-5.65Q717.13-5.65 717.13-5.05L717.13-5.05Z" opacity="1" transform="matrix(1,0,0,1,0,0)" fill="#010c80" class="undefined-text-1" data-fill-palette-color="secondary" id="text-1"></path></svg></g></svg></g></svg></g></svg></g><g transform="matrix(1,0,0,1,0,0.28538201184259293)"><svg viewBox="0 0 105.4503428721452 114.15280473703916" height="114.15280473703916" width="105.4503428721452"><g><svg xmlns="http://www.w3.org/2000/svg" xmlns:xlink="http://www.w3.org/1999/xlink" version="1.1" x="0" y="0" viewBox="8.846157414896705 5.049677379939029 83.07013900542992 89.92563797410281" enable-background="new 0 0 100 100" xml:space="preserve" height="114.15280473703916" width="105.4503428721452" class="icon-icon-0" data-fill-palette-color="accent" id="icon-0"><path d="M90.1 75.1l-0.5-1c-1.4-3.3-18.6-8.3-20-8.4l-1.1 0.1c-2.1 0.4-4.4 2.3-8.9 6.2-0.9 0.8-2.1 1-3.2 0.4-5.9-3.3-13.1-9.9-16.7-13.9-3.9-4.3-8.6-11.4-10.8-17.1-0.4-1.1 0-2.3 0.8-3.1 5.1-4.6 7.3-6.8 7.5-9.2 0.1-1.4-2.9-19.1-6-20.8l-0.9-0.6c-2-1.3-5-3.2-8.3-2.5-0.8 0.2-1.6 0.5-2.3 0.9C17.5 7.5 12 11.3 9.5 16.2 8 19.3 7.3 47.4 28.3 71.1c20.8 23.5 46.5 24.5 50.3 23.7l0.1 0 0.3-0.1c5.2-1.9 9.6-6.8 11.3-8.9C93.4 82.1 91.3 77.6 90.1 75.1z" fill="#010c80" data-fill-palette-color="accent"></path></svg></g></svg></g></svg></g><defs></defs></svg><rect width="395.52" height="86.75456316675262" fill="none" stroke="none" visibility="hidden"></rect></g></svg></g></svg>